<?xml version="1.0" encoding="UTF-8"?>
<svg version="1.1" xmlns="http://www.w3.org/2000/svg" width="32" height="32">
<path d="M0 0 C4.8846525 2.26787438 7.73212562 5.1153475 10 10 C10.75381535 15.5997712 10.77303575 20.33499991 8.375 25.5 C3.80134327 30.3143755 0.6912538 32.25156236 -6 32.5 C-12.6912538 32.25156236 -15.80134327 30.3143755 -20.375 25.5 C-22.77303575 20.33499991 -22.75381535 15.5997712 -22 10 C-17.52212837 0.3553534 -9.85292056 -1.32635469 0 0 Z " fill="#ABFCFA" transform="translate(22,0)"/>
<path d="M0 0 C3.4375 0.1875 3.4375 0.1875 4.4375 1.1875 C4.8007306 6.26204515 4.45974111 11.20407457 3.4375 16.1875 C4.0975 16.1875 4.7575 16.1875 5.4375 16.1875 C5.4375 15.5275 5.4375 14.8675 5.4375 14.1875 C6.0975 14.1875 6.7575 14.1875 7.4375 14.1875 C6.7775 15.8375 6.1175 17.4875 5.4375 19.1875 C3.1275 19.5175 0.8175 19.8475 -1.5625 20.1875 C-1.5625 17.8775 -1.5625 15.5675 -1.5625 13.1875 C-3.2125 12.8575 -4.8625 12.5275 -6.5625 12.1875 C-6.5625 14.4975 -6.5625 16.8075 -6.5625 19.1875 C-8.5425 20.1775 -8.5425 20.1775 -10.5625 21.1875 C-10.8925 20.8575 -11.2225 20.5275 -11.5625 20.1875 C-11.52125 19.053125 -11.48 17.91875 -11.4375 16.75 C-11.47875 15.574375 -11.52 14.39875 -11.5625 13.1875 C-12.5525 12.5275 -13.5425 11.8675 -14.5625 11.1875 C-13.82 10.81625 -13.0775 10.445 -12.3125 10.0625 C-9.07346566 7.8540675 -7.60589576 5.49921037 -5.5625 2.1875 C-3.5625 0.1875 -3.5625 0.1875 0 0 Z " fill="#F79215" transform="translate(19.5625,5.8125)"/>
<path d="M0 0 C0.99 0 1.98 0 3 0 C3 1.98 3 3.96 3 6 C1.02 6 -0.96 6 -3 6 C-2.42655063 3.13275314 -2.1385485 2.1385485 0 0 Z " fill="#B2F3E5" transform="translate(17,9)"/>
</svg>
